# xmcd
# 
# Track frame offsets:
#     150
#     26050
#     49080
#     78947
#     109497
#     142522
#     165995
#     198547
#     240177
# 
# Disc length: 3546
# 
# Revision: 1
# Processed by: cddbd v1.5.2PL0 Copyright (c) Steve Scherf et al.
# Submitted via: BonkEnc v1.0.8
# 
DISCID=660dd809
DTITLE=増尾好秋 - Larry Goldings - Lenny White - Are You Happy Now
DYEAR=1996
DGENRE=Contemporary Jazz
TTITLE0=Small Steps
TTITLE1=Snap Jam
TTITLE2=For The Old Boys
TTITLE3=Josephine
TTITLE4=Miles Run
TTITLE5=Skating In Central Park
TTITLE6=Walkin' Around
TTITLE7=E.J.
TTITLE8=Are You Happy Now
EXTD=YEAR: 1998
EXTT0=
EXTT1=
EXTT2=
EXTT3=
EXTT4=
EXTT5=
EXTT6=
EXTT7=
EXTT8=
PLAYORDER=
